<mxfile host="app.diagrams.net" agent="Mozilla/5.0 (Windows NT 10.0; Win64; x64) AppleWebKit/537.36 (KHTML, like Gecko) Chrome/134.0.0.0 Safari/537.36 Edg/134.0.0.0" version="26.1.1">
  <diagram name="Page-1" id="5YDVeAiDMqFRkuZVFdcP">
    <mxGraphModel dx="938" dy="727" grid="1" gridSize="10" guides="1" tooltips="1" connect="1" arrows="1" fold="1" page="1" pageScale="1" pageWidth="850" pageHeight="1100" math="0" shadow="0">
      <root>
        <mxCell id="0" />
        <mxCell id="1" parent="0" />
        <mxCell id="eP7QuQ9XPI-PK0VuXg0I-26" value="&lt;b&gt;&lt;font style=&quot;color: rgb(255, 255, 255);&quot;&gt;ANW&lt;/font&gt;&lt;/b&gt;&lt;div&gt;&lt;font style=&quot;font-size: 10px; color: rgb(255, 255, 255);&quot;&gt;[System Platform]&lt;/font&gt;&lt;/div&gt;" style="rounded=1;whiteSpace=wrap;html=1;fillColor=#1061B0;" parent="1" vertex="1">
          <mxGeometry x="320" y="179" width="140" height="80" as="geometry" />
        </mxCell>
        <mxCell id="m3zjqHu34r-lu_J2Bqki-4" value="&lt;font&gt;«&lt;/font&gt;external»&lt;br&gt;&lt;b&gt;UNAA&amp;nbsp;&lt;/b&gt;&lt;div&gt;&lt;b&gt;Website&lt;/b&gt;&lt;/div&gt;" style="html=1;dropTarget=0;whiteSpace=wrap;fillColor=#E6E6E6;" vertex="1" parent="1">
          <mxGeometry x="40" y="80" width="140" height="80" as="geometry" />
        </mxCell>
        <mxCell id="m3zjqHu34r-lu_J2Bqki-5" value="" style="shape=module;jettyWidth=8;jettyHeight=4;" vertex="1" parent="m3zjqHu34r-lu_J2Bqki-4">
          <mxGeometry x="1" width="20" height="20" relative="1" as="geometry">
            <mxPoint x="-27" y="7" as="offset" />
          </mxGeometry>
        </mxCell>
        <mxCell id="m3zjqHu34r-lu_J2Bqki-14" value="Browser&lt;div&gt;HTTPS&lt;/div&gt;" style="edgeStyle=orthogonalEdgeStyle;rounded=0;orthogonalLoop=1;jettySize=auto;html=1;entryX=0;entryY=0.5;entryDx=0;entryDy=0;startArrow=classic;startFill=1;endArrow=none;" edge="1" parent="1" source="m3zjqHu34r-lu_J2Bqki-6" target="eP7QuQ9XPI-PK0VuXg0I-26">
          <mxGeometry relative="1" as="geometry">
            <mxPoint x="280" y="219" as="targetPoint" />
          </mxGeometry>
        </mxCell>
        <mxCell id="m3zjqHu34r-lu_J2Bqki-6" value="&lt;font&gt;«&lt;/font&gt;external»&lt;br&gt;&lt;b&gt;FINA&lt;/b&gt;&lt;div&gt;&lt;b&gt;Website&lt;/b&gt;&lt;/div&gt;" style="html=1;dropTarget=0;whiteSpace=wrap;fillColor=#E6E6E6;" vertex="1" parent="1">
          <mxGeometry x="40" y="179" width="140" height="80" as="geometry" />
        </mxCell>
        <mxCell id="m3zjqHu34r-lu_J2Bqki-7" value="" style="shape=module;jettyWidth=8;jettyHeight=4;" vertex="1" parent="m3zjqHu34r-lu_J2Bqki-6">
          <mxGeometry x="1" width="20" height="20" relative="1" as="geometry">
            <mxPoint x="-27" y="7" as="offset" />
          </mxGeometry>
        </mxCell>
        <mxCell id="m3zjqHu34r-lu_J2Bqki-15" value="Browser&lt;div&gt;HTTPS&lt;/div&gt;" style="edgeStyle=orthogonalEdgeStyle;rounded=0;orthogonalLoop=1;jettySize=auto;html=1;entryX=0;entryY=0.5;entryDx=0;entryDy=0;curved=1;endArrow=none;startFill=1;startArrow=classic;" edge="1" parent="1" source="m3zjqHu34r-lu_J2Bqki-8" target="eP7QuQ9XPI-PK0VuXg0I-26">
          <mxGeometry relative="1" as="geometry">
            <mxPoint x="280" y="219" as="targetPoint" />
          </mxGeometry>
        </mxCell>
        <mxCell id="m3zjqHu34r-lu_J2Bqki-8" value="&lt;font&gt;«&lt;/font&gt;external»&lt;br&gt;&lt;b&gt;CSNA&lt;/b&gt;&lt;div&gt;&lt;b&gt;Website&lt;/b&gt;&lt;/div&gt;" style="html=1;dropTarget=0;whiteSpace=wrap;fillColor=#E6E6E6;" vertex="1" parent="1">
          <mxGeometry x="40" y="280" width="140" height="80" as="geometry" />
        </mxCell>
        <mxCell id="m3zjqHu34r-lu_J2Bqki-9" value="" style="shape=module;jettyWidth=8;jettyHeight=4;" vertex="1" parent="m3zjqHu34r-lu_J2Bqki-8">
          <mxGeometry x="1" width="20" height="20" relative="1" as="geometry">
            <mxPoint x="-27" y="7" as="offset" />
          </mxGeometry>
        </mxCell>
        <mxCell id="m3zjqHu34r-lu_J2Bqki-12" value="Browser&lt;div&gt;HTTPS&lt;/div&gt;" style="edgeStyle=orthogonalEdgeStyle;rounded=0;orthogonalLoop=1;jettySize=auto;html=1;entryX=0;entryY=0.5;entryDx=0;entryDy=0;curved=1;startArrow=classic;startFill=1;endArrow=none;" edge="1" parent="1" source="m3zjqHu34r-lu_J2Bqki-4" target="eP7QuQ9XPI-PK0VuXg0I-26">
          <mxGeometry relative="1" as="geometry">
            <mxPoint x="280" y="219" as="targetPoint" />
          </mxGeometry>
        </mxCell>
        <mxCell id="m3zjqHu34r-lu_J2Bqki-40" value="Title" style="" parent="0" />
        <mxCell id="m3zjqHu34r-lu_J2Bqki-41" value="ANW Business Context" style="text;strokeColor=none;fillColor=none;html=1;fontSize=24;fontStyle=1;verticalAlign=middle;align=center;" vertex="1" parent="m3zjqHu34r-lu_J2Bqki-40">
          <mxGeometry width="520" height="40" as="geometry" />
        </mxCell>
        <mxCell id="m3zjqHu34r-lu_J2Bqki-43" value="The Journal Platform uses an Event-Driven Architecture for communication" style="text;html=1;align=center;verticalAlign=middle;whiteSpace=wrap;rounded=0;" vertex="1" parent="m3zjqHu34r-lu_J2Bqki-40">
          <mxGeometry y="40" width="520" height="30" as="geometry" />
        </mxCell>
      </root>
    </mxGraphModel>
  </diagram>
</mxfile>
